<svg width="108" height="108" viewBox="0 0 108 108" fill="none" xmlns="http://www.w3.org/2000/svg">
<circle cx="54" cy="54" r="54" fill="#131118" fill-opacity="0.05"/>
<circle cx="54" cy="54" r="43" fill="#131118" fill-opacity="0.1"/>
<circle cx="54" cy="54" r="32" fill="#131118"/>
<path fill-rule="evenodd" clip-rule="evenodd" d="M54 64C59.5228 64 64 59.5228 64 54C64 48.4772 59.5228 44 54 44C48.4772 44 44 48.4772 44 54C44 59.5228 48.4772 64 54 64ZM58.592 51.4605C58.8463 51.1335 58.7874 50.6623 58.4605 50.408C58.1335 50.1537 57.6623 50.2126 57.408 50.5396L53.401 55.6914C53.3119 55.806 53.1443 55.8209 53.0364 55.7238L50.5017 53.4426C50.1938 53.1655 49.7196 53.1904 49.4425 53.4983C49.1654 53.8062 49.1904 54.2804 49.4983 54.5575L52.033 56.8387C52.7881 57.5183 53.9613 57.4143 54.585 56.6123L58.592 51.4605Z" fill="white"/>
</svg>
