<svg width="25" height="16" viewBox="0 0 25 16" fill="none" xmlns="http://www.w3.org/2000/svg">
<g clip-path="url(#clip0_226_866)">
<path d="M22.1056 0H2.16485C1.06355 0 0.170776 0.89543 0.170776 2V14C0.170776 15.1046 1.06355 16 2.16485 16H22.1056C23.2069 16 24.0997 15.1046 24.0997 14V2C24.0997 0.89543 23.2069 0 22.1056 0Z" fill="#016FD0"/>
<path fill-rule="evenodd" clip-rule="evenodd" d="M13.894 13.3938V7.69238L24.0115 7.70149V9.27638L22.8421 10.5298L24.0115 11.7947V13.403H22.1444L21.1522 12.3048L20.167 13.4071L13.894 13.3938Z" fill="#FFFFFE"/>
<path fill-rule="evenodd" clip-rule="evenodd" d="M14.5698 12.7687V8.31982H18.3309V9.34471H15.7876V10.0404H18.2703V11.0482H15.7876V11.7315H18.3309V12.7687H14.5698Z" fill="#016FD0"/>
<path fill-rule="evenodd" clip-rule="evenodd" d="M18.3121 12.7686L20.3933 10.5416L18.312 8.31982H19.9229L21.1946 9.72986L22.4699 8.31982H24.0115V8.35483L21.9747 10.5416L24.0115 12.7055V12.7686H22.4544L21.1601 11.3444L19.8792 12.7686H18.3121Z" fill="#016FD0"/>
<path fill-rule="evenodd" clip-rule="evenodd" d="M14.3659 2.63184H16.8047L17.6613 4.58269V2.63184H20.6722L21.1914 4.09341L21.7124 2.63184H24.0115V8.33323H11.8611L14.3659 2.63184Z" fill="#FFFFFE"/>
<path fill-rule="evenodd" clip-rule="evenodd" d="M14.8277 3.25098L12.8595 7.69615H14.2094L14.5807 6.80598H16.5927L16.9637 7.69615H18.3472L16.3872 3.25098H14.8277ZM14.9968 5.80841L15.587 4.39334L16.1768 5.80841H14.9968Z" fill="#016FD0"/>
<path fill-rule="evenodd" clip-rule="evenodd" d="M18.3287 7.69557V3.25049L20.2262 3.25703L21.2026 5.98976L22.1853 3.25049H24.0115V7.69557L22.8364 7.706V4.65265L21.7271 7.69557H20.6545L19.5222 4.64222V7.69557H18.3287Z" fill="#016FD0"/>
</g>
<defs>
<clipPath id="clip0_226_866">
<rect width="23.9289" height="16" fill="white" transform="translate(0.170776)"/>
</clipPath>
</defs>
</svg>
