<svg width="15" height="15" viewBox="0 0 15 15" fill="none" xmlns="http://www.w3.org/2000/svg">
<g clip-path="url(#clip0_3_5647)">
<path fill-rule="evenodd" clip-rule="evenodd" d="M3.08189 6.59798H13.529C13.7682 6.59798 13.9976 6.693 14.1667 6.86215C14.3359 7.03129 14.4309 7.2607 14.4309 7.49991C14.4309 7.73912 14.3359 7.96853 14.1667 8.13767C13.9976 8.30682 13.7682 8.40184 13.529 8.40184H3.08189L7.22267 12.5426C7.39203 12.7119 7.48722 12.9414 7.4873 13.1809C7.48739 13.4203 7.39236 13.6499 7.22312 13.8193C7.05388 13.9887 6.8243 14.0839 6.58487 14.0839C6.34545 14.084 6.11579 13.989 5.94643 13.8198L0.264257 8.13758C0.0951705 7.96844 0.000183105 7.73907 0.000183105 7.49991C0.000183105 7.26075 0.0951705 7.03138 0.264257 6.86225L5.94643 1.18007C6.11591 1.01083 6.34568 0.915847 6.58519 0.916016C6.8247 0.916185 7.05433 1.01149 7.22357 1.18097C7.39281 1.35045 7.48779 1.58022 7.48762 1.81973C7.48745 2.05924 7.39215 2.28887 7.22267 2.45811L3.08189 6.59798Z" fill="#8792A2"/>
</g>
<defs>
<clipPath id="clip0_3_5647">
<rect width="14.4309" height="14.4309" fill="white" transform="translate(0 0.284668)"/>
</clipPath>
</defs>
</svg>
