<svg width="25" height="16" viewBox="0 0 25 16" fill="none" xmlns="http://www.w3.org/2000/svg">
<g clip-path="url(#clip0_226_876)">
<path d="M22.0318 15.7499L22.034 15.7499C22.9862 15.7581 23.7675 14.9773 23.7794 14.0042L23.7794 2.0063C23.7756 1.53569 23.5888 1.08617 23.2607 0.756802C22.9333 0.428269 22.4921 0.246149 22.0318 0.250071L2.09445 0.250062C1.63627 0.246149 1.19506 0.428269 0.867737 0.756802C0.539578 1.08617 0.352826 1.53569 0.349007 2.00426L0.348999 13.9937C0.352826 14.4643 0.539578 14.9138 0.867737 15.2432C1.19506 15.5717 1.63627 15.7538 2.09657 15.7499H22.0318ZM22.0308 16.2499C22.0304 16.2499 22.0301 16.2499 22.0297 16.2499L22.0318 16.2499H22.0308Z" fill="white" stroke="black" stroke-opacity="0.2" stroke-width="0.5"/>
<path d="M12.6748 16.0002H22.0318C22.5571 16.0046 23.0625 15.7995 23.437 15.4301C23.8115 15.0607 24.0243 14.5573 24.0287 14.0305V11.6719C20.4953 13.7062 16.6633 15.167 12.6748 16.0002Z" fill="#F27712"/>
<path d="M23.2036 9.29643H22.3537L21.3965 8.03023H21.3058V9.29643H20.6126V6.15161H21.6358C22.4362 6.15161 22.8983 6.48264 22.8983 7.0785C22.8983 7.56678 22.6095 7.88126 22.0896 7.98057L23.2036 9.29643ZM22.1804 7.10333C22.1804 6.79712 21.9494 6.63988 21.5203 6.63988H21.3058V7.59161H21.5038C21.9494 7.59161 22.1804 7.42609 22.1804 7.10333ZM18.1867 6.15161H20.1506V6.68126H18.8799V7.38471H20.1011V7.92264H18.8799V8.77505H20.1506V9.30471H18.1867V6.15161ZM15.9589 9.37919L14.4571 6.14333H15.2163L16.1652 8.26195L17.1223 6.14333H17.8649L16.3467 9.37919H15.9754H15.9589ZM9.67961 9.37092C8.62343 9.37092 7.7983 8.65092 7.7983 7.71574C7.7983 6.8054 8.63994 6.06885 9.69611 6.06885C9.99316 6.06885 10.2407 6.12678 10.546 6.25919V6.98747C10.3148 6.75965 10.0037 6.63187 9.67961 6.63161C9.0195 6.63161 8.51617 7.11161 8.51617 7.71574C8.51617 8.35299 9.01125 8.80816 9.71261 8.80816C10.0262 8.80816 10.2655 8.70885 10.546 8.46057V9.18885C10.2324 9.32126 9.9684 9.37092 9.67961 9.37092ZM7.58377 8.33643C7.58377 8.94885 7.08043 9.37092 6.35431 9.37092C5.82623 9.37092 5.44667 9.18885 5.12486 8.77505L5.57869 8.38609C5.73546 8.66747 5.99951 8.80816 6.32956 8.80816C6.64311 8.80816 6.8659 8.61781 6.8659 8.36954C6.8659 8.22885 6.79989 8.12126 6.65961 8.0385C6.50581 7.96365 6.34565 7.90271 6.18104 7.85643C5.52918 7.64954 5.30639 7.42609 5.30639 6.98747C5.30639 6.47436 5.78497 6.0854 6.41207 6.0854C6.80814 6.0854 7.16295 6.20954 7.45999 6.44126L7.09694 6.85505C6.95304 6.69683 6.74936 6.60671 6.53584 6.60678C6.2388 6.60678 6.02426 6.75574 6.02426 6.95436C6.02426 7.11988 6.14803 7.21092 6.5606 7.35161C7.35273 7.59988 7.58377 7.83161 7.58377 8.34471V8.33643ZM4.17596 6.15161H4.86907V9.30471H4.17596V6.15161ZM1.94809 9.30471H0.924927V6.15161H1.94809C3.07028 6.15161 3.8459 6.79712 3.8459 7.72402C3.8459 8.19574 3.61487 8.64264 3.21055 8.94057C2.86399 9.18885 2.47618 9.30471 1.93984 9.30471H1.94809ZM2.75673 6.93781C2.52569 6.75574 2.26165 6.68954 1.80782 6.68954H1.61804V8.77505H1.80782C2.25339 8.77505 2.53394 8.6923 2.75673 8.52678C2.99602 8.32816 3.13629 8.03023 3.13629 7.72402C3.13629 7.41781 2.99602 7.12816 2.75673 6.93781Z" fill="black"/>
<path d="M12.4768 6.06885C11.5692 6.06885 10.8265 6.79712 10.8265 7.69919C10.8265 8.65919 11.5362 9.37919 12.4768 9.37919C13.401 9.37919 14.1271 8.65092 14.1271 7.72402C14.1271 6.79712 13.4092 6.06885 12.4768 6.06885Z" fill="#F27712"/>
</g>
<defs>
<clipPath id="clip0_226_876">
<rect width="23.9289" height="16" fill="white" transform="translate(0.0997314)"/>
</clipPath>
</defs>
</svg>
