<svg width="24" height="24" viewBox="0 0 24 24" fill="none" xmlns="http://www.w3.org/2000/svg">
<path d="M12.0001 1.99951C8.00613 1.99951 4.75684 5.24881 4.75684 9.24271C4.75684 14.1993 11.2388 21.4758 11.5148 21.7831C11.774 22.0718 12.2266 22.0713 12.4854 21.7831C12.7613 21.4758 19.2433 14.1993 19.2433 9.24271C19.2432 5.24881 15.994 1.99951 12.0001 1.99951ZM12.0001 12.887C9.99062 12.887 8.35586 11.2522 8.35586 9.24271C8.35586 7.23326 9.99066 5.59849 12.0001 5.59849C14.0095 5.59849 15.6443 7.2333 15.6443 9.24275C15.6443 11.2522 14.0095 12.887 12.0001 12.887Z" fill="black"/>
</svg>
