<svg width="18" height="18" viewBox="0 0 18 18" fill="none" xmlns="http://www.w3.org/2000/svg">
<path d="M9 17.0625C4.5525 17.0625 0.9375 13.4475 0.9375 9C0.9375 4.5525 4.5525 0.9375 9 0.9375C13.4475 0.9375 17.0625 4.5525 17.0625 9C17.0625 13.4475 13.4475 17.0625 9 17.0625ZM9 2.0625C5.175 2.0625 2.0625 5.175 2.0625 9C2.0625 12.825 5.175 15.9375 9 15.9375C12.825 15.9375 15.9375 12.825 15.9375 9C15.9375 5.175 12.825 2.0625 9 2.0625Z" fill="#292D32"/>
<path d="M6.75018 16.3125H6.00018C5.69268 16.3125 5.43768 16.0575 5.43768 15.75C5.43768 15.4425 5.67768 15.195 5.98518 15.1875C4.80768 11.1675 4.80768 6.8325 5.98518 2.8125C5.67768 2.805 5.43768 2.5575 5.43768 2.25C5.43768 1.9425 5.69268 1.6875 6.00018 1.6875H6.75018C6.93018 1.6875 7.10268 1.7775 7.20768 1.92C7.31268 2.07 7.34268 2.2575 7.28268 2.43C5.87268 6.6675 5.87268 11.3325 7.28268 15.5775C7.34268 15.75 7.31268 15.9375 7.20768 16.0875C7.10268 16.2225 6.93018 16.3125 6.75018 16.3125Z" fill="#292D32"/>
<path d="M11.2498 16.3125C11.1898 16.3125 11.1298 16.305 11.0698 16.2825C10.7773 16.185 10.6123 15.8625 10.7173 15.57C12.1273 11.3325 12.1273 6.66751 10.7173 2.42251C10.6198 2.13001 10.7773 1.80751 11.0698 1.71001C11.3698 1.61251 11.6848 1.77001 11.7823 2.06251C13.2748 6.53251 13.2748 11.4525 11.7823 15.915C11.7073 16.1625 11.4823 16.3125 11.2498 16.3125Z" fill="#292D32"/>
<path d="M9 12.9001C6.9075 12.9001 4.8225 12.6076 2.8125 12.0151C2.805 12.3151 2.5575 12.5626 2.25 12.5626C1.9425 12.5626 1.6875 12.3076 1.6875 12.0001V11.2501C1.6875 11.0701 1.7775 10.8976 1.92 10.7926C2.07 10.6876 2.2575 10.6576 2.43 10.7176C6.6675 12.1276 11.34 12.1276 15.5775 10.7176C15.75 10.6576 15.9375 10.6876 16.0875 10.7926C16.2375 10.8976 16.32 11.0701 16.32 11.2501V12.0001C16.32 12.3076 16.065 12.5626 15.7575 12.5626C15.45 12.5626 15.2025 12.3226 15.195 12.0151C13.1775 12.6076 11.0925 12.9001 9 12.9001Z" fill="#292D32"/>
<path d="M15.7498 7.31252C15.6898 7.31252 15.6298 7.30502 15.5698 7.28252C11.3323 5.87252 6.65984 5.87252 2.42234 7.28252C2.12234 7.38002 1.80734 7.22252 1.70984 6.93002C1.61984 6.63002 1.77734 6.31502 2.06984 6.21752C6.53984 4.72502 11.4598 4.72502 15.9223 6.21752C16.2148 6.31502 16.3798 6.63752 16.2748 6.93002C16.2073 7.16252 15.9823 7.31252 15.7498 7.31252Z" fill="#292D32"/>
</svg>
