<svg width="25" height="24" viewBox="0 0 25 24" fill="none" xmlns="http://www.w3.org/2000/svg">
<g id="vuesax/outline/heart">
<g id="heart">
<path id="Vector" d="M12.5 21.6501C12.19 21.6501 11.89 21.6101 11.64 21.5201C7.82 20.2101 1.75 15.5601 1.75 8.6901C1.75 5.1901 4.58 2.3501 8.06 2.3501C9.75 2.3501 11.33 3.0101 12.5 4.1901C13.67 3.0101 15.25 2.3501 16.94 2.3501C20.42 2.3501 23.25 5.2001 23.25 8.6901C23.25 15.5701 17.18 20.2101 13.36 21.5201C13.11 21.6101 12.81 21.6501 12.5 21.6501ZM8.06 3.8501C5.41 3.8501 3.25 6.0201 3.25 8.6901C3.25 15.5201 9.82 19.3201 12.13 20.1101C12.31 20.1701 12.7 20.1701 12.88 20.1101C15.18 19.3201 21.76 15.5301 21.76 8.6901C21.76 6.0201 19.6 3.8501 16.95 3.8501C15.43 3.8501 14.02 4.5601 13.11 5.7901C12.83 6.1701 12.19 6.1701 11.91 5.7901C10.98 4.5501 9.58 3.8501 8.06 3.8501Z" fill="#292D32"/>
</g>
</g>
</svg>
