<svg width="25" height="24" viewBox="0 0 25 24" fill="none" xmlns="http://www.w3.org/2000/svg">
<path d="M12.5199 20.5299C10.1899 20.5299 7.85987 20.1599 5.64987 19.4199C4.80987 19.1299 4.16987 18.5399 3.88987 17.7699C3.59987 16.9999 3.69987 16.1499 4.15987 15.3899L5.30987 13.4799C5.54987 13.0799 5.76987 12.2799 5.76987 11.8099V8.91992C5.76987 5.19992 8.79987 2.16992 12.5199 2.16992C16.2399 2.16992 19.2699 5.19992 19.2699 8.91992V11.8099C19.2699 12.2699 19.4899 13.0799 19.7299 13.4899L20.8699 15.3899C21.2999 16.1099 21.3799 16.9799 21.0899 17.7699C20.7999 18.5599 20.1699 19.1599 19.3799 19.4199C17.1799 20.1599 14.8499 20.5299 12.5199 20.5299ZM12.5199 3.66992C9.62987 3.66992 7.26987 6.01992 7.26987 8.91992V11.8099C7.26987 12.5399 6.96987 13.6199 6.59987 14.2499L5.44987 16.1599C5.22987 16.5299 5.16987 16.9199 5.29987 17.2499C5.41987 17.5899 5.71987 17.8499 6.12987 17.9899C10.3099 19.3899 14.7399 19.3899 18.9199 17.9899C19.2799 17.8699 19.5599 17.5999 19.6899 17.2399C19.8199 16.8799 19.7899 16.4899 19.5899 16.1599L18.4399 14.2499C18.0599 13.5999 17.7699 12.5299 17.7699 11.7999V8.91992C17.7699 6.01992 15.4199 3.66992 12.5199 3.66992Z" fill="#292D32"/>
<path d="M14.3801 3.94018C14.3101 3.94018 14.2401 3.93018 14.1701 3.91018C13.8801 3.83018 13.6001 3.77018 13.3301 3.73018C12.4801 3.62018 11.6601 3.68018 10.8901 3.91018C10.6101 4.00018 10.3101 3.91018 10.1201 3.70018C9.93011 3.49018 9.87011 3.19018 9.98011 2.92018C10.3901 1.87018 11.3901 1.18018 12.5301 1.18018C13.6701 1.18018 14.6701 1.86018 15.0801 2.92018C15.1801 3.19018 15.1301 3.49018 14.9401 3.70018C14.7901 3.86018 14.5801 3.94018 14.3801 3.94018Z" fill="#292D32"/>
<path d="M12.52 22.8101C11.53 22.8101 10.57 22.4101 9.87002 21.7101C9.17002 21.0101 8.77002 20.0501 8.77002 19.0601H10.27C10.27 19.6501 10.51 20.2301 10.93 20.6501C11.35 21.0701 11.93 21.3101 12.52 21.3101C13.76 21.3101 14.77 20.3001 14.77 19.0601H16.27C16.27 21.1301 14.59 22.8101 12.52 22.8101Z" fill="#292D32"/>
</svg>
