<svg width="18" height="18" viewBox="0 0 18 18" fill="none" xmlns="http://www.w3.org/2000/svg">
<path d="M9 9.5625C6.6225 9.5625 4.6875 7.6275 4.6875 5.25C4.6875 2.8725 6.6225 0.9375 9 0.9375C11.3775 0.9375 13.3125 2.8725 13.3125 5.25C13.3125 7.6275 11.3775 9.5625 9 9.5625ZM9 2.0625C7.245 2.0625 5.8125 3.495 5.8125 5.25C5.8125 7.005 7.245 8.4375 9 8.4375C10.755 8.4375 12.1875 7.005 12.1875 5.25C12.1875 3.495 10.755 2.0625 9 2.0625Z" fill="black"/>
<path d="M15.4426 17.0625C15.1351 17.0625 14.8801 16.8075 14.8801 16.5C14.8801 13.9125 12.2401 11.8125 9.00011 11.8125C5.76011 11.8125 3.12012 13.9125 3.12012 16.5C3.12012 16.8075 2.86512 17.0625 2.55762 17.0625C2.25012 17.0625 1.99512 16.8075 1.99512 16.5C1.99512 13.2975 5.13761 10.6875 9.00011 10.6875C12.8626 10.6875 16.0051 13.2975 16.0051 16.5C16.0051 16.8075 15.7501 17.0625 15.4426 17.0625Z" fill="black"/>
</svg>
