<svg width="131" height="31" viewBox="0 0 131 31" fill="none" xmlns="http://www.w3.org/2000/svg">
<path d="M15.7929 4.09521V4.09626C15.776 4.12534 12.2955 10.1292 7.95067 17.4595C3.59532 24.8077 0 30.6906 0 30.6906L12.3315 30.6365L12.3323 30.6364L12.3297 30.6459C18.3172 30.53 23.7182 26.5934 25.3119 20.6453C25.8102 18.786 25.8853 16.9143 25.5964 15.1255C24.8043 9.85824 20.9149 5.57448 15.7929 4.09521Z" fill="black"/>
<path d="M22.6078 0.309326V0.31037C22.591 0.339449 19.1104 6.3433 14.7656 13.6736C10.4103 21.0218 6.81494 26.9047 6.81494 26.9047L19.1464 26.8506L19.1472 26.8505L19.1446 26.86C25.1321 26.7441 30.5331 22.8075 32.1269 16.8594C32.6251 15.0001 32.7003 13.1284 32.4113 11.3396C31.6192 6.07236 27.7299 1.78859 22.6078 0.309326Z" fill="#10F2C5"/>
<path d="M48.6481 24.5H42.1855V6.26965H48.7015C50.5352 6.26965 52.1137 6.63461 53.4371 7.36454C54.7605 8.08853 55.7782 9.13001 56.4903 10.489C57.2084 11.8479 57.5674 13.474 57.5674 15.367C57.5674 17.266 57.2084 18.898 56.4903 20.2629C55.7782 21.6278 54.7545 22.6752 53.4193 23.4051C52.09 24.135 50.4996 24.5 48.6481 24.5ZM46.0399 21.1975H48.4878C49.6272 21.1975 50.5856 20.9958 51.363 20.5922C52.1464 20.1828 52.7339 19.5507 53.1255 18.6962C53.5231 17.8357 53.7219 16.726 53.7219 15.367C53.7219 14.0199 53.5231 12.9191 53.1255 12.0645C52.7339 11.21 52.1493 10.581 51.3719 10.1774C50.5945 9.77389 49.6361 9.57212 48.4967 9.57212H46.0399V21.1975ZM65.3896 24.7225C64.3511 24.7225 63.4105 24.4555 62.5678 23.9214C61.7311 23.3814 61.0665 22.5891 60.5739 21.5447C60.0873 20.4943 59.844 19.2066 59.844 17.6814C59.844 16.1147 60.0962 14.8122 60.6006 13.7736C61.105 12.7292 61.7756 11.9488 62.6124 11.4325C63.455 10.9103 64.3778 10.6492 65.3807 10.6492C66.1463 10.6492 66.7842 10.7798 67.2946 11.0409C67.8109 11.296 68.2263 11.6165 68.5408 12.0022C68.8612 12.382 69.1045 12.7559 69.2707 13.1238H69.3864V6.26965H73.1696V24.5H69.4309V22.3102H69.2707C69.0927 22.69 68.8405 23.0669 68.5141 23.4407C68.1936 23.8086 67.7753 24.1143 67.259 24.3576C66.7486 24.6009 66.1255 24.7225 65.3896 24.7225ZM66.5913 21.7049C67.2026 21.7049 67.7189 21.5388 68.1402 21.2064C68.5675 20.8682 68.8939 20.3964 69.1194 19.7911C69.3508 19.1858 69.4665 18.4766 69.4665 17.6636C69.4665 16.8506 69.3538 16.1444 69.1283 15.5451C68.9028 14.9457 68.5764 14.4828 68.1491 14.1564C67.7218 13.83 67.2026 13.6668 66.5913 13.6668C65.9682 13.6668 65.443 13.836 65.0158 14.1742C64.5885 14.5125 64.2651 14.9813 64.0455 15.5807C63.8259 16.18 63.7161 16.8743 63.7161 17.6636C63.7161 18.4588 63.8259 19.162 64.0455 19.7733C64.271 20.3786 64.5944 20.8533 65.0158 21.1975C65.443 21.5358 65.9682 21.7049 66.5913 21.7049ZM87.6635 14.7261L84.1919 14.9397C84.1326 14.643 84.005 14.376 83.8091 14.1386C83.6133 13.8953 83.3552 13.7024 83.0347 13.56C82.7202 13.4116 82.3434 13.3375 81.9042 13.3375C81.3167 13.3375 80.8212 13.4621 80.4177 13.7113C80.0141 13.9546 79.8124 14.281 79.8124 14.6905C79.8124 15.0169 79.9429 15.2928 80.204 15.5183C80.4651 15.7439 80.9132 15.9248 81.5482 16.0613L84.0228 16.5598C85.3521 16.8328 86.3431 17.2719 86.9959 17.8773C87.6487 18.4826 87.9751 19.2778 87.9751 20.2629C87.9751 21.159 87.711 21.9453 87.1828 22.6218C86.6606 23.2983 85.9426 23.8265 85.0287 24.2062C84.1207 24.5801 83.0733 24.767 81.8864 24.767C80.0764 24.767 78.6344 24.3902 77.5603 23.6366C76.4921 22.877 75.866 21.8444 75.682 20.5388L79.4118 20.343C79.5245 20.8949 79.7975 21.3162 80.2307 21.607C80.6639 21.8918 81.2188 22.0343 81.8953 22.0343C82.56 22.0343 83.0941 21.9067 83.4976 21.6515C83.9071 21.3904 84.1148 21.0551 84.1207 20.6456C84.1148 20.3014 83.9694 20.0196 83.6845 19.8C83.3997 19.5745 82.9605 19.4024 82.3671 19.2837L79.9993 18.8119C78.6641 18.5449 77.6701 18.082 77.0173 17.4233C76.3704 16.7646 76.047 15.9248 76.047 14.9041C76.047 14.0259 76.2844 13.2692 76.7591 12.6342C77.2398 11.9993 77.9134 11.5097 78.7798 11.1655C79.6521 10.8213 80.6728 10.6492 81.8419 10.6492C83.5688 10.6492 84.9278 11.0142 85.9188 11.7441C86.9158 12.474 87.4974 13.468 87.6635 14.7261ZM96.5228 29.9121C95.2944 29.9121 94.241 29.743 93.3627 29.4047C92.4904 29.0724 91.7961 28.6184 91.2798 28.0428C90.7635 27.4672 90.4282 26.8203 90.2739 26.1023L93.7811 25.6305C93.8879 25.9035 94.057 26.1587 94.2885 26.396C94.5199 26.6334 94.8255 26.8233 95.2053 26.9657C95.5911 27.1141 96.0599 27.1883 96.6118 27.1883C97.4367 27.1883 98.1162 26.9865 98.6502 26.583C99.1903 26.1854 99.4603 25.5177 99.4603 24.5801V22.0788H99.3001C99.1339 22.4586 98.8847 22.8176 98.5523 23.1559C98.22 23.4941 97.7927 23.7701 97.2705 23.9837C96.7483 24.1973 96.1252 24.3042 95.4012 24.3042C94.3745 24.3042 93.4399 24.0668 92.5972 23.592C91.7605 23.1114 91.0928 22.3785 90.5943 21.3934C90.1018 20.4023 89.8555 19.1502 89.8555 17.6369C89.8555 16.088 90.1077 14.7944 90.6122 13.7558C91.1166 12.7173 91.7872 11.9399 92.6239 11.4236C93.4666 10.9073 94.3894 10.6492 95.3923 10.6492C96.1578 10.6492 96.7987 10.7798 97.315 11.0409C97.8313 11.296 98.2467 11.6165 98.5612 12.0022C98.8817 12.382 99.128 12.7559 99.3001 13.1238H99.4425V10.8272H103.208V24.6335C103.208 25.7967 102.923 26.7699 102.353 27.5532C101.784 28.3366 100.994 28.9241 99.9855 29.3157C98.9826 29.7133 97.8283 29.9121 96.5228 29.9121ZM96.6029 21.4557C97.2141 21.4557 97.7304 21.3043 98.1518 21.0017C98.579 20.6931 98.9054 20.254 99.1309 19.6843C99.3624 19.1086 99.4781 18.4202 99.4781 17.6191C99.4781 16.818 99.3653 16.1237 99.1398 15.5361C98.9143 14.9427 98.5879 14.4828 98.1607 14.1564C97.7334 13.83 97.2141 13.6668 96.6029 13.6668C95.9798 13.6668 95.4546 13.836 95.0273 14.1742C94.6 14.5065 94.2766 14.9694 94.057 15.5629C93.8375 16.1563 93.7277 16.8417 93.7277 17.6191C93.7277 18.4084 93.8375 19.0908 94.057 19.6665C94.2826 20.2362 94.606 20.6783 95.0273 20.9928C95.4546 21.3014 95.9798 21.4557 96.6029 21.4557ZM110.018 16.5954V24.5H106.225V10.8272H109.839V13.2396H110C110.302 12.4443 110.81 11.8153 111.522 11.3524C112.234 10.8836 113.097 10.6492 114.112 10.6492C115.062 10.6492 115.89 10.8569 116.596 11.2723C117.302 11.6877 117.851 12.2812 118.243 13.0526C118.634 13.8182 118.83 14.732 118.83 15.7943V24.5H115.038V16.4708C115.044 15.6341 114.83 14.9813 114.397 14.5125C113.964 14.0377 113.367 13.8003 112.608 13.8003C112.097 13.8003 111.646 13.9101 111.255 14.1297C110.869 14.3493 110.566 14.6697 110.347 15.0911C110.133 15.5065 110.023 16.0079 110.018 16.5954ZM121.819 24.5V10.8272H125.495V13.2128H125.637C125.887 12.3642 126.305 11.7233 126.893 11.2901C127.48 10.851 128.157 10.6314 128.922 10.6314C129.112 10.6314 129.317 10.6433 129.536 10.667C129.756 10.6907 129.949 10.7234 130.115 10.7649V14.1297C129.937 14.0763 129.691 14.0288 129.376 13.9873C129.062 13.9457 128.774 13.925 128.513 13.925C127.955 13.925 127.456 14.0466 127.017 14.2899C126.584 14.5273 126.24 14.8596 125.985 15.2869C125.735 15.7142 125.611 16.2067 125.611 16.7646V24.5H121.819Z" fill="black"/>
</svg>
